<svg xmlns="http://www.w3.org/2000/svg" viewBox="0 0 200 230"><circle cx="190" cy="88" r="3" fill="#ffffff" opacity="0.93"/><circle cx="188.63" cy="103.63" r="3" fill="#ffffff" opacity="0.93"/><circle cx="184.57" cy="118.78" r="3" fill="#ffffff" opacity="0.93"/><circle cx="177.94" cy="133" r="3" fill="#ffffff" opacity="0.93"/><circle cx="168.94" cy="145.85" r="3" fill="#ffffff" opacity="0.93"/><circle cx="157.85" cy="156.94" r="3" fill="#ffffff" opacity="0.93"/><circle cx="145" cy="165.94" r="3" fill="#ffffff" opacity="0.93"/><circle cx="130.78" cy="172.57" r="3" fill="#ffffff" opacity="0.93"/><circle cx="115.63" cy="176.63" r="3" fill="#ffffff" opacity="0.93"/><circle cx="100" cy="178" r="3" fill="#ffffff" opacity="0.93"/><circle cx="84.37" cy="176.63" r="3" fill="#ffffff" opacity="0.93"/><circle cx="69.22" cy="172.57" r="3" fill="#ffffff" opacity="0.93"/><circle cx="55" cy="165.94" r="3" fill="#ffffff" opacity="0.93"/><circle cx="42.15" cy="156.94" r="3" fill="#ffffff" opacity="0.93"/><circle cx="31.06" cy="145.85" r="3" fill="#ffffff" opacity="0.93"/><circle cx="22.06" cy="133" r="3" fill="#ffffff" opacity="0.93"/><circle cx="15.43" cy="118.78" r="3" fill="#ffffff" opacity="0.93"/><circle cx="11.37" cy="103.63" r="3" fill="#ffffff" opacity="0.93"/><circle cx="10" cy="88" r="3" fill="#ffffff" opacity="0.93"/><circle cx="11.37" cy="72.37" r="3" fill="#ffffff" opacity="0.93"/><circle cx="15.43" cy="57.22" r="3" fill="#ffffff" opacity="0.93"/><circle cx="22.06" cy="43" r="3" fill="#ffffff" opacity="0.93"/><circle cx="31.06" cy="30.15" r="3" fill="#ffffff" opacity="0.93"/><circle cx="42.15" cy="19.06" r="3" fill="#ffffff" opacity="0.93"/><circle cx="55" cy="10.06" r="3" fill="#ffffff" opacity="0.93"/><circle cx="69.22" cy="3.43" r="3" fill="#ffffff" opacity="0.93"/><circle cx="84.37" cy="-0.63" r="3" fill="#ffffff" opacity="0.93"/><circle cx="100" cy="-2" r="3" fill="#ffffff" opacity="0.93"/><circle cx="115.63" cy="-0.63" r="3" fill="#ffffff" opacity="0.93"/><circle cx="130.78" cy="3.43" r="3" fill="#ffffff" opacity="0.93"/><circle cx="145" cy="10.06" r="3" fill="#ffffff" opacity="0.93"/><circle cx="157.85" cy="19.06" r="3" fill="#ffffff" opacity="0.93"/><circle cx="168.94" cy="30.15" r="3" fill="#ffffff" opacity="0.93"/><circle cx="177.94" cy="43" r="3" fill="#ffffff" opacity="0.93"/><circle cx="184.57" cy="57.22" r="3" fill="#ffffff" opacity="0.93"/><circle cx="188.63" cy="72.37" r="3" fill="#ffffff" opacity="0.93"/><circle cx="182.4" cy="97.94" r="2.7" fill="#ffffff" opacity="0.93"/><circle cx="179.03" cy="113.35" r="2.7" fill="#ffffff" opacity="0.93"/><circle cx="172.81" cy="127.85" r="2.7" fill="#ffffff" opacity="0.93"/><circle cx="163.95" cy="140.91" r="2.7" fill="#ffffff" opacity="0.93"/><circle cx="152.78" cy="152.06" r="2.7" fill="#ffffff" opacity="0.93"/><circle cx="139.7" cy="160.89" r="2.7" fill="#ffffff" opacity="0.93"/><circle cx="125.19" cy="167.08" r="2.7" fill="#ffffff" opacity="0.93"/><circle cx="109.77" cy="170.42" r="2.7" fill="#ffffff" opacity="0.93"/><circle cx="94" cy="170.78" r="2.7" fill="#ffffff" opacity="0.93"/><circle cx="78.44" cy="168.15" r="2.7" fill="#ffffff" opacity="0.93"/><circle cx="63.66" cy="162.62" r="2.7" fill="#ffffff" opacity="0.93"/><circle cx="50.19" cy="154.4" r="2.7" fill="#ffffff" opacity="0.93"/><circle cx="38.53" cy="143.77" r="2.7" fill="#ffffff" opacity="0.93"/><circle cx="29.08" cy="131.13" r="2.7" fill="#ffffff" opacity="0.93"/><circle cx="22.2" cy="116.93" r="2.7" fill="#ffffff" opacity="0.93"/><circle cx="18.14" cy="101.68" r="2.7" fill="#ffffff" opacity="0.93"/><circle cx="17.03" cy="85.94" r="2.7" fill="#ffffff" opacity="0.93"/><circle cx="18.91" cy="70.28" r="2.7" fill="#ffffff" opacity="0.93"/><circle cx="23.73" cy="55.25" r="2.7" fill="#ffffff" opacity="0.93"/><circle cx="31.31" cy="41.41" r="2.7" fill="#ffffff" opacity="0.93"/><circle cx="41.37" cy="29.25" r="2.7" fill="#ffffff" opacity="0.93"/><circle cx="53.55" cy="19.22" r="2.7" fill="#ffffff" opacity="0.93"/><circle cx="67.4" cy="11.67" r="2.7" fill="#ffffff" opacity="0.93"/><circle cx="82.44" cy="6.88" r="2.7" fill="#ffffff" opacity="0.93"/><circle cx="98.11" cy="5.02" r="2.7" fill="#ffffff" opacity="0.93"/><circle cx="113.85" cy="6.16" r="2.7" fill="#ffffff" opacity="0.93"/><circle cx="129.08" cy="10.26" r="2.7" fill="#ffffff" opacity="0.93"/><circle cx="143.27" cy="17.17" r="2.7" fill="#ffffff" opacity="0.93"/><circle cx="155.89" cy="26.64" r="2.7" fill="#ffffff" opacity="0.93"/><circle cx="166.49" cy="38.33" r="2.7" fill="#ffffff" opacity="0.93"/><circle cx="174.69" cy="51.81" r="2.7" fill="#ffffff" opacity="0.93"/><circle cx="180.19" cy="66.6" r="2.7" fill="#ffffff" opacity="0.93"/><circle cx="182.79" cy="82.16" r="2.7" fill="#ffffff" opacity="0.93"/><circle cx="175.69" cy="94.83" r="2.45" fill="#ffffff" opacity="0.93"/><circle cx="172.62" cy="110.42" r="2.45" fill="#ffffff" opacity="0.93"/><circle cx="166.37" cy="125.03" r="2.45" fill="#ffffff" opacity="0.93"/><circle cx="157.22" cy="138.02" r="2.45" fill="#ffffff" opacity="0.93"/><circle cx="145.57" cy="148.82" r="2.45" fill="#ffffff" opacity="0.93"/><circle cx="131.93" cy="156.97" r="2.45" fill="#ffffff" opacity="0.93"/><circle cx="116.89" cy="162.1" r="2.45" fill="#ffffff" opacity="0.93"/><circle cx="101.12" cy="163.99" r="2.45" fill="#ffffff" opacity="0.93"/><circle cx="85.29" cy="162.56" r="2.45" fill="#ffffff" opacity="0.93"/><circle cx="70.11" cy="157.88" r="2.45" fill="#ffffff" opacity="0.93"/><circle cx="56.24" cy="150.14" r="2.45" fill="#ffffff" opacity="0.93"/><circle cx="44.28" cy="139.68" r="2.45" fill="#ffffff" opacity="0.93"/><circle cx="34.75" cy="126.96" r="2.45" fill="#ffffff" opacity="0.93"/><circle cx="28.07" cy="112.55" r="2.45" fill="#ffffff" opacity="0.93"/><circle cx="24.54" cy="97.06" r="2.45" fill="#ffffff" opacity="0.93"/><circle cx="24.31" cy="81.17" r="2.45" fill="#ffffff" opacity="0.93"/><circle cx="27.38" cy="65.58" r="2.45" fill="#ffffff" opacity="0.93"/><circle cx="33.63" cy="50.97" r="2.45" fill="#ffffff" opacity="0.93"/><circle cx="42.78" cy="37.98" r="2.45" fill="#ffffff" opacity="0.93"/><circle cx="54.43" cy="27.18" r="2.45" fill="#ffffff" opacity="0.93"/><circle cx="68.07" cy="19.03" r="2.45" fill="#ffffff" opacity="0.93"/><circle cx="83.11" cy="13.9" r="2.45" fill="#ffffff" opacity="0.93"/><circle cx="98.88" cy="12.01" r="2.45" fill="#ffffff" opacity="0.93"/><circle cx="114.71" cy="13.44" r="2.45" fill="#ffffff" opacity="0.93"/><circle cx="129.89" cy="18.12" r="2.45" fill="#ffffff" opacity="0.93"/><circle cx="143.76" cy="25.86" r="2.45" fill="#ffffff" opacity="0.93"/><circle cx="155.72" cy="36.32" r="2.45" fill="#ffffff" opacity="0.93"/><circle cx="165.25" cy="49.04" r="2.45" fill="#ffffff" opacity="0.93"/><circle cx="171.93" cy="63.45" r="2.45" fill="#ffffff" opacity="0.93"/><circle cx="175.46" cy="78.94" r="2.45" fill="#ffffff" opacity="0.93"/><circle cx="168.83" cy="92.83" r="2.2" fill="#ffffff" opacity="0.93"/><circle cx="165.86" cy="108.57" r="2.2" fill="#ffffff" opacity="0.93"/><circle cx="159.34" cy="123.2" r="2.2" fill="#ffffff" opacity="0.93"/><circle cx="149.63" cy="135.94" r="2.2" fill="#ffffff" opacity="0.93"/><circle cx="137.23" cy="146.09" r="2.2" fill="#ffffff" opacity="0.93"/><circle cx="122.83" cy="153.11" r="2.2" fill="#ffffff" opacity="0.93"/><circle cx="107.2" cy="156.62" r="2.2" fill="#ffffff" opacity="0.93"/><circle cx="91.18" cy="156.43" r="2.2" fill="#ffffff" opacity="0.93"/><circle cx="75.64" cy="152.56" r="2.2" fill="#ffffff" opacity="0.93"/><circle cx="61.41" cy="145.2" r="2.2" fill="#ffffff" opacity="0.93"/><circle cx="49.25" cy="134.75" r="2.2" fill="#ffffff" opacity="0.93"/><circle cx="39.84" cy="121.79" r="2.2" fill="#ffffff" opacity="0.93"/><circle cx="33.67" cy="107.01" r="2.2" fill="#ffffff" opacity="0.93"/><circle cx="31.07" cy="91.2" r="2.2" fill="#ffffff" opacity="0.93"/><circle cx="32.19" cy="75.22" r="2.2" fill="#ffffff" opacity="0.93"/><circle cx="36.97" cy="59.92" r="2.2" fill="#ffffff" opacity="0.93"/><circle cx="45.14" cy="46.14" r="2.2" fill="#ffffff" opacity="0.93"/><circle cx="56.28" cy="34.62" r="2.2" fill="#ffffff" opacity="0.93"/><circle cx="69.76" cy="25.98" r="2.2" fill="#ffffff" opacity="0.93"/><circle cx="84.88" cy="20.68" r="2.2" fill="#ffffff" opacity="0.93"/><circle cx="100.82" cy="19" r="2.2" fill="#ffffff" opacity="0.93"/><circle cx="116.71" cy="21.05" r="2.2" fill="#ffffff" opacity="0.93"/><circle cx="131.69" cy="26.71" r="2.2" fill="#ffffff" opacity="0.93"/><circle cx="144.97" cy="35.67" r="2.2" fill="#ffffff" opacity="0.93"/><circle cx="155.83" cy="47.45" r="2.2" fill="#ffffff" opacity="0.93"/><circle cx="163.68" cy="61.42" r="2.2" fill="#ffffff" opacity="0.93"/><circle cx="168.09" cy="76.82" r="2.2" fill="#ffffff" opacity="0.93"/><circle cx="161.89" cy="91.72" r="1.98" fill="#ffffff" opacity="0.93"/><circle cx="158.82" cy="107.61" r="1.98" fill="#ffffff" opacity="0.93"/><circle cx="151.74" cy="122.16" r="1.98" fill="#ffffff" opacity="0.93"/><circle cx="141.13" cy="134.39" r="1.98" fill="#ffffff" opacity="0.93"/><circle cx="127.72" cy="143.46" r="1.98" fill="#ffffff" opacity="0.93"/><circle cx="112.43" cy="148.74" r="1.98" fill="#ffffff" opacity="0.93"/><circle cx="96.28" cy="149.89" r="1.98" fill="#ffffff" opacity="0.93"/><circle cx="80.39" cy="146.82" r="1.98" fill="#ffffff" opacity="0.93"/><circle cx="65.84" cy="139.74" r="1.98" fill="#ffffff" opacity="0.93"/><circle cx="53.61" cy="129.13" r="1.98" fill="#ffffff" opacity="0.93"/><circle cx="44.54" cy="115.72" r="1.98" fill="#ffffff" opacity="0.93"/><circle cx="39.26" cy="100.43" r="1.98" fill="#ffffff" opacity="0.93"/><circle cx="38.11" cy="84.28" r="1.98" fill="#ffffff" opacity="0.93"/><circle cx="41.18" cy="68.39" r="1.98" fill="#ffffff" opacity="0.93"/><circle cx="48.26" cy="53.84" r="1.98" fill="#ffffff" opacity="0.93"/><circle cx="58.87" cy="41.61" r="1.98" fill="#ffffff" opacity="0.93"/><circle cx="72.28" cy="32.54" r="1.98" fill="#ffffff" opacity="0.93"/><circle cx="87.57" cy="27.26" r="1.98" fill="#ffffff" opacity="0.93"/><circle cx="103.72" cy="26.11" r="1.98" fill="#ffffff" opacity="0.93"/><circle cx="119.61" cy="29.18" r="1.98" fill="#ffffff" opacity="0.93"/><circle cx="134.16" cy="36.26" r="1.98" fill="#ffffff" opacity="0.93"/><circle cx="146.39" cy="46.87" r="1.98" fill="#ffffff" opacity="0.93"/><circle cx="155.46" cy="60.28" r="1.98" fill="#ffffff" opacity="0.93"/><circle cx="160.74" cy="75.57" r="1.98" fill="#ffffff" opacity="0.93"/><circle cx="154.93" cy="90.75" r="1.78" fill="#ffffff" opacity="0.93"/><circle cx="151.68" cy="106.82" r="1.78" fill="#ffffff" opacity="0.93"/><circle cx="143.84" cy="121.22" r="1.78" fill="#ffffff" opacity="0.93"/><circle cx="132.1" cy="132.66" r="1.78" fill="#ffffff" opacity="0.93"/><circle cx="117.51" cy="140.14" r="1.78" fill="#ffffff" opacity="0.93"/><circle cx="101.36" cy="142.98" r="1.78" fill="#ffffff" opacity="0.93"/><circle cx="85.1" cy="140.94" r="1.78" fill="#ffffff" opacity="0.93"/><circle cx="70.15" cy="134.2" r="1.78" fill="#ffffff" opacity="0.93"/><circle cx="57.86" cy="123.35" r="1.78" fill="#ffffff" opacity="0.93"/><circle cx="49.32" cy="109.36" r="1.78" fill="#ffffff" opacity="0.93"/><circle cx="45.27" cy="93.47" r="1.78" fill="#ffffff" opacity="0.93"/><circle cx="46.09" cy="77.09" r="1.78" fill="#ffffff" opacity="0.93"/><circle cx="51.7" cy="61.69" r="1.78" fill="#ffffff" opacity="0.93"/><circle cx="61.6" cy="48.62" r="1.78" fill="#ffffff" opacity="0.93"/><circle cx="74.91" cy="39.05" r="1.78" fill="#ffffff" opacity="0.93"/><circle cx="90.46" cy="33.83" r="1.78" fill="#ffffff" opacity="0.93"/><circle cx="106.85" cy="33.43" r="1.78" fill="#ffffff" opacity="0.93"/><circle cx="122.63" cy="37.87" r="1.78" fill="#ffffff" opacity="0.93"/><circle cx="136.4" cy="46.77" r="1.78" fill="#ffffff" opacity="0.93"/><circle cx="146.93" cy="59.33" r="1.78" fill="#ffffff" opacity="0.93"/><circle cx="153.3" cy="74.44" r="1.78" fill="#ffffff" opacity="0.93"/><circle cx="147.96" cy="89.92" r="1.58" fill="#ffffff" opacity="0.93"/><circle cx="144.41" cy="106.21" r="1.58" fill="#ffffff" opacity="0.93"/><circle cx="135.51" cy="120.3" r="1.58" fill="#ffffff" opacity="0.93"/><circle cx="122.32" cy="130.5" r="1.58" fill="#ffffff" opacity="0.93"/><circle cx="106.44" cy="135.57" r="1.58" fill="#ffffff" opacity="0.93"/><circle cx="89.78" cy="134.9" r="1.58" fill="#ffffff" opacity="0.93"/><circle cx="74.36" cy="128.58" r="1.58" fill="#ffffff" opacity="0.93"/><circle cx="62.03" cy="117.36" r="1.58" fill="#ffffff" opacity="0.93"/><circle cx="54.27" cy="102.6" r="1.58" fill="#ffffff" opacity="0.93"/><circle cx="52.04" cy="86.08" r="1.58" fill="#ffffff" opacity="0.93"/><circle cx="55.59" cy="69.79" r="1.58" fill="#ffffff" opacity="0.93"/><circle cx="64.49" cy="55.7" r="1.58" fill="#ffffff" opacity="0.93"/><circle cx="77.68" cy="45.5" r="1.58" fill="#ffffff" opacity="0.93"/><circle cx="93.56" cy="40.43" r="1.58" fill="#ffffff" opacity="0.93"/><circle cx="110.22" cy="41.1" r="1.58" fill="#ffffff" opacity="0.93"/><circle cx="125.64" cy="47.42" r="1.58" fill="#ffffff" opacity="0.93"/><circle cx="137.97" cy="58.64" r="1.58" fill="#ffffff" opacity="0.93"/><circle cx="145.73" cy="73.4" r="1.58" fill="#ffffff" opacity="0.93"/><circle cx="140.98" cy="89.23" r="1.4" fill="#ffffff" opacity="0.93"/><circle cx="137.39" cy="104.82" r="1.4" fill="#ffffff" opacity="0.93"/><circle cx="128.11" cy="117.85" r="1.4" fill="#ffffff" opacity="0.93"/><circle cx="114.55" cy="126.33" r="1.4" fill="#ffffff" opacity="0.93"/><circle cx="98.77" cy="128.98" r="1.4" fill="#ffffff" opacity="0.93"/><circle cx="83.18" cy="125.39" r="1.4" fill="#ffffff" opacity="0.93"/><circle cx="70.15" cy="116.11" r="1.4" fill="#ffffff" opacity="0.93"/><circle cx="61.67" cy="102.55" r="1.4" fill="#ffffff" opacity="0.93"/><circle cx="59.02" cy="86.77" r="1.4" fill="#ffffff" opacity="0.93"/><circle cx="62.61" cy="71.18" r="1.4" fill="#ffffff" opacity="0.93"/><circle cx="71.89" cy="58.15" r="1.4" fill="#ffffff" opacity="0.93"/><circle cx="85.45" cy="49.67" r="1.4" fill="#ffffff" opacity="0.93"/><circle cx="101.23" cy="47.02" r="1.4" fill="#ffffff" opacity="0.93"/><circle cx="116.82" cy="50.61" r="1.4" fill="#ffffff" opacity="0.93"/><circle cx="129.85" cy="59.89" r="1.4" fill="#ffffff" opacity="0.93"/><circle cx="138.33" cy="73.45" r="1.4" fill="#ffffff" opacity="0.93"/><circle cx="133.99" cy="88.85" r="1.22" fill="#ffffff" opacity="0.93"/><circle cx="129.7" cy="104.55" r="1.22" fill="#ffffff" opacity="0.93"/><circle cx="118.61" cy="116.46" r="1.22" fill="#ffffff" opacity="0.93"/><circle cx="103.25" cy="121.84" r="1.22" fill="#ffffff" opacity="0.93"/><circle cx="87.15" cy="119.48" r="1.22" fill="#ffffff" opacity="0.93"/><circle cx="73.99" cy="109.9" r="1.22" fill="#ffffff" opacity="0.93"/><circle cx="66.79" cy="95.31" r="1.22" fill="#ffffff" opacity="0.93"/><circle cx="67.2" cy="79.04" r="1.22" fill="#ffffff" opacity="0.93"/><circle cx="75.12" cy="64.82" r="1.22" fill="#ffffff" opacity="0.93"/><circle cx="88.74" cy="55.92" r="1.22" fill="#ffffff" opacity="0.93"/><circle cx="104.94" cy="54.36" r="1.22" fill="#ffffff" opacity="0.93"/><circle cx="120.01" cy="60.51" r="1.22" fill="#ffffff" opacity="0.93"/><circle cx="130.49" cy="72.96" r="1.22" fill="#ffffff" opacity="0.93"/><circle cx="126.99" cy="88.54" r="1.05" fill="#ffffff" opacity="0.93"/><circle cx="121.52" cy="104.3" r="1.05" fill="#ffffff" opacity="0.93"/><circle cx="107.83" cy="113.84" r="1.05" fill="#ffffff" opacity="0.93"/><circle cx="91.14" cy="113.51" r="1.05" fill="#ffffff" opacity="0.93"/><circle cx="77.84" cy="103.43" r="1.05" fill="#ffffff" opacity="0.93"/><circle cx="73.01" cy="87.46" r="1.05" fill="#ffffff" opacity="0.93"/><circle cx="78.48" cy="71.7" r="1.05" fill="#ffffff" opacity="0.93"/><circle cx="92.17" cy="62.16" r="1.05" fill="#ffffff" opacity="0.93"/><circle cx="108.86" cy="62.49" r="1.05" fill="#ffffff" opacity="0.93"/><circle cx="122.16" cy="72.57" r="1.05" fill="#ffffff" opacity="0.93"/><circle cx="120" cy="88.3" r="0.88" fill="#ffffff" opacity="0.93"/><circle cx="113.93" cy="102.35" r="0.88" fill="#ffffff" opacity="0.93"/><circle cx="99.7" cy="108" r="0.88" fill="#ffffff" opacity="0.93"/><circle cx="85.65" cy="101.93" r="0.88" fill="#ffffff" opacity="0.93"/><circle cx="80" cy="87.7" r="0.88" fill="#ffffff" opacity="0.93"/><circle cx="86.07" cy="73.65" r="0.88" fill="#ffffff" opacity="0.93"/><circle cx="100.3" cy="68" r="0.88" fill="#ffffff" opacity="0.93"/><circle cx="114.35" cy="74.07" r="0.88" fill="#ffffff" opacity="0.93"/><circle cx="114" cy="88.14" r="0.72" fill="#ffffff" opacity="0.93"/><circle cx="106.88" cy="100.19" r="0.72" fill="#ffffff" opacity="0.93"/><circle cx="92.88" cy="100.05" r="0.72" fill="#ffffff" opacity="0.93"/><circle cx="86" cy="87.86" r="0.72" fill="#ffffff" opacity="0.93"/><circle cx="93.12" cy="75.81" r="0.72" fill="#ffffff" opacity="0.93"/><circle cx="107.12" cy="75.95" r="0.72" fill="#ffffff" opacity="0.93"/><circle cx="108" cy="88" r="0.56" fill="#ffffff" opacity="0.93"/><circle cx="100" cy="96" r="0.56" fill="#ffffff" opacity="0.93"/><circle cx="92" cy="88" r="0.56" fill="#ffffff" opacity="0.93"/><circle cx="100" cy="80" r="0.56" fill="#ffffff" opacity="0.93"/><circle cx="103" cy="88" r="0.4" fill="#ffffff" opacity="0.93"/><circle cx="98.5" cy="90.6" r="0.4" fill="#ffffff" opacity="0.93"/><circle cx="98.5" cy="85.4" r="0.4" fill="#ffffff" opacity="0.93"/><text x="100" y="113" text-anchor="middle" font-family="Georgia,Times New Roman,serif" font-size="26" fill="#ffffff" font-weight="bold" letter-spacing="4">STG</text><text x="100" y="157" text-anchor="middle" font-family="Arial,Helvetica,sans-serif" font-size="7.5" fill="#ffffff" opacity="0.82" letter-spacing="8.5">SCAVASSINI</text><text x="100" y="173" text-anchor="middle" font-family="Arial,Helvetica,sans-serif" font-size="7.5" fill="#ffffff" opacity="0.82" letter-spacing="8.5">TEAM GUIDED</text></svg>